<svg width="40" height="40" viewBox="0 0 40 40" fill="none" xmlns="http://www.w3.org/2000/svg">
    <path d="M22.76 2.67999C21.92 3.17999 20.82 3.69999 20.34 3.83999C19.56 4.03999 19.32 4.01999 18.22 3.59999C17.54 3.35999 16.94 3.05999 16.88 2.97999C16.66 2.61999 15.2 1.99999 14.62 1.99999C12.94 1.99999 9.16 3.85999 7.46 5.51999C6.08 6.87999 5.96 7.25999 6.42 9.17999C6.82 10.94 5.64 13.12 3.74 14.06C3.14 14.38 2.28 14.94 1.86 15.3L1.1 15.96L1.04 19.92C0.999997 22.84 1.06 24.04 1.24 24.4C1.4 24.7 2.1 25.22 3.04 25.7C4.82 26.62 5.26 27 5.9 28.1C6.64 29.38 6.84 30.34 6.58 31.52C6.3 32.8 6.44 33.4 7.22 34.3C8.36 35.58 13.5 38.2 14.92 38.2C15.5 38.2 16.08 37.92 17.58 36.92C19.54 35.64 20.94 35.76 23.34 37.42C24.32 38.1 24.62 38.22 25.3 38.14C26.7 38 30.82 35.84 32.46 34.38C33.56 33.42 33.74 32.74 33.4 30.92C33.18 29.76 33.2 29.58 33.62 28.58C34.3 26.98 34.68 26.58 36.36 25.7C38.18 24.74 38.48 24.28 38.82 21.9C39.22 19.1 38.78 15.98 37.84 14.94C37.66 14.72 36.98 14.3 36.32 13.98C33.74 12.76 32.8 11.08 33.22 8.49999C33.5 6.81999 33.28 6.21999 31.96 5.13999C31 4.39999 28.68 3.03999 27.6 2.59999C27.22 2.45999 26.8 2.25999 26.66 2.15999C26.54 2.05999 25.94 1.91999 25.36 1.87999C24.38 1.77999 24.2 1.83999 22.76 2.67999ZM26.4 3.49999C28.14 4.21999 30.8 5.85999 31.56 6.65999C32.2 7.31999 32.22 7.39999 32.02 8.11999C31.68 9.29999 31.76 10.46 32.22 11.72C32.74 13.1 33.78 14.18 35.34 14.98C35.98 15.3 36.66 15.72 36.84 15.94C37.3 16.44 37.8 18.44 37.8 19.7C37.8 20.92 37.3 23.34 36.98 23.74C36.84 23.9 36.18 24.3 35.52 24.62C33.96 25.4 33.32 26.02 32.68 27.4C32.04 28.78 31.88 30.02 32.18 31.4C32.4 32.44 32.4 32.48 31.86 33.06C30.74 34.24 26.32 36.78 25.24 36.86C25.06 36.86 24.36 36.52 23.7 36.06C22.2 35.06 21.44 34.8 20.02 34.8C18.6 34.82 17.74 35.12 16.22 36.16L15 37L14.06 36.68C12.32 36.1 9.52 34.52 8.54 33.58C7.7 32.78 7.58 32.56 7.74 32.16C7.82 31.92 7.9 31.12 7.9 30.4C7.9 29.38 7.76 28.84 7.32 27.92C6.48 26.2 5.78 25.52 4 24.68C2.08 23.78 2.14 23.94 2.24 19.6C2.32 16.12 2.18 16.36 4.6 15.12C5.66 14.56 6.04 14.24 6.64 13.28C7.64 11.72 7.94 10.36 7.64 8.75999C7.42 7.57999 7.44 7.49999 7.9 6.87999C8.7 5.83999 11.6 4.13999 13.84 3.41999C14.62 3.15999 14.58 3.13999 17 4.51999C18.16 5.17999 20 5.37999 21.22 4.95999C21.7 4.77999 22.74 4.27999 23.5 3.81999C24.28 3.37999 24.98 2.99999 25.06 2.99999C25.14 2.99999 25.74 3.21999 26.4 3.49999Z"
          fill="#1296DB"/>
    <path d="M16.1 6.8C11.82 7.94 8.25999 11.32 6.77999 15.66C6.23999 17.22 6.03999 21.2 6.39999 23.06C7.29999 27.74 10.98 31.78 15.66 33.24C16.88 33.64 17.54 33.7 20 33.7C22.54 33.7 23.08 33.64 24.28 33.22C28.72 31.7 32.28 27.88 33.28 23.6C33.66 21.98 33.68 18.28 33.32 16.8C32.1 11.78 28.44 8.08 23.3 6.68C21.8 6.26 17.82 6.34 16.1 6.8ZM23.9 8.22C25.9 8.96 27.24 9.8 28.72 11.28C30.22 12.8 31.08 14.14 31.8 16.2C32.42 17.94 32.56 20.96 32.12 22.9C31.12 27.12 28 30.54 23.74 32.04C21.92 32.68 18.06 32.68 16.16 32.06C10.86 30.28 7.35999 25.48 7.37999 20.02C7.39999 13.7 12.36 8.26 18.7 7.62C20.34 7.46 22.46 7.7 23.9 8.22Z"
          fill="#1296DB"/>
    <path fill-rule="evenodd" clip-rule="evenodd"
          d="M11.6 12.06C13.14 10.5 14.68 9.47999 16.38 8.88C18.28 8.2 21.92 8.2 23.82 8.88C25.54 9.47999 27.02 10.48 28.6 12.08C30.92 14.46 31.8 16.62 31.8 20C31.8 23.38 30.92 25.54 28.6 27.92C27.02 29.52 25.54 30.52 23.82 31.12C21.92 31.8 18.28 31.8 16.38 31.12C14.68 30.52 13.14 29.5 11.6 27.94C9.27999 25.6 8.39999 23.42 8.39999 20C8.39999 16.58 9.27999 14.4 11.6 12.06ZM17.49 24.352C17.6487 24.5107 17.868 24.59 18.148 24.59C18.4653 24.59 18.708 24.5247 18.876 24.394C19.0533 24.2633 19.1793 24.1187 19.254 23.96C19.3287 23.8013 19.366 23.6847 19.366 23.61C19.366 23.5073 19.3147 23.4327 19.212 23.386C18.9787 23.2833 18.82 23.134 18.736 22.938C18.6613 22.742 18.624 22.4713 18.624 22.126C18.624 21.8273 18.638 21.5053 18.666 21.16C18.7033 20.8147 18.7407 20.5207 18.778 20.278C18.9647 20.4647 19.184 20.614 19.436 20.726C19.688 20.8473 19.982 20.908 20.318 20.908C20.7847 20.908 21.2047 20.8007 21.578 20.586C21.9607 20.3713 22.2873 20.082 22.558 19.718C22.8287 19.354 23.0387 18.948 23.188 18.5C23.3373 18.0427 23.412 17.576 23.412 17.1C23.412 16.456 23.2487 15.9473 22.922 15.574C22.6047 15.1913 22.166 15 21.606 15C21.046 15 20.542 15.182 20.094 15.546C19.6553 15.9007 19.3007 16.3393 19.03 16.862C19.0487 16.75 19.0627 16.6427 19.072 16.54C19.0813 16.428 19.086 16.3207 19.086 16.218C19.086 15.8633 19.0253 15.5787 18.904 15.364C18.7827 15.14 18.5633 15.028 18.246 15.028C18.0033 15.028 17.784 15.0887 17.588 15.21C17.4013 15.322 17.2567 15.4573 17.154 15.616C17.0513 15.7747 17 15.9193 17 16.05C17 16.1527 17.0373 16.2273 17.112 16.274C17.1867 16.3207 17.2707 16.3627 17.364 16.4C17.6067 16.4747 17.7653 16.6427 17.84 16.904C17.924 17.1653 17.966 17.4733 17.966 17.828C17.966 18.136 17.9427 18.486 17.896 18.878C17.8587 19.2607 17.8073 19.6527 17.742 20.054C17.686 20.4553 17.6253 20.838 17.56 21.202C17.476 21.6593 17.4013 22.0933 17.336 22.504C17.28 22.9147 17.252 23.2553 17.252 23.526C17.252 23.9273 17.3313 24.2027 17.49 24.352ZM21.872 18.892C21.5827 19.228 21.172 19.396 20.64 19.396C20.0613 19.396 19.5387 19.1767 19.072 18.738C19.1933 18.3553 19.3473 17.996 19.534 17.66C19.73 17.324 19.9633 17.0533 20.234 16.848C20.5047 16.6333 20.8173 16.526 21.172 16.526C21.5173 16.526 21.7927 16.6333 21.998 16.848C22.2033 17.0533 22.306 17.3473 22.306 17.73C22.306 18.1687 22.1613 18.556 21.872 18.892Z"
          fill="#1296DB"/>
</svg>
